<?xml version="1.0" encoding="iso-8859-1"?>
<!-- Uploaded to: SVG Repo, www.svgrepo.com, Generator: SVG Repo Mixer Tools -->
<svg version="1.1" id="Layer_1" xmlns="http://www.w3.org/2000/svg" xmlns:xlink="http://www.w3.org/1999/xlink" 
	 viewBox="0 0 495 495" xml:space="preserve">
<g>
	<polygon style="fill:#2488FF;" points="162.165,50 42.165,50 2.165,50 2.165,120 162.165,120 	"/>
	<path style="fill:#2488FF;" d="M142.165,425v-40h20v-30h-20v-40h20v-70h-160v250h160v-70H142.165z M112.165,425h-40v-40h40V425z
		 M112.165,355h-40v-40h40V355z"/>
	<path style="fill:#005ECE;" d="M162.165,315h20v40h-20v30h20v40h-20v70h160V245h-160V315z M212.165,315h40v40h-40V315z
		 M212.165,385h40v40h-40V385z"/>
	<rect x="162.165" y="50" style="fill:#005ECE;" width="160" height="70"/>
	<rect x="2.165" style="fill:#00E7F0;" width="40" height="50"/>
	<rect x="2.165" y="120" style="fill:#00E7F0;" width="160" height="125"/>
	<rect x="162.165" y="120" style="fill:#00D7DF;" width="160" height="125"/>
	<polygon style="fill:#FFDA44;" points="142.165,355 162.165,355 182.165,355 182.165,315 162.165,315 142.165,315 	"/>
	<rect x="212.165" y="315" style="fill:#FFDA44;" width="40" height="40"/>
	<rect x="72.165" y="385" style="fill:#FFDA44;" width="40" height="40"/>
	<polygon style="fill:#FFDA44;" points="142.165,425 162.165,425 182.165,425 182.165,385 162.165,385 142.165,385 	"/>
	<rect x="72.165" y="315" style="fill:#FFDA44;" width="40" height="40"/>
	<rect x="212.165" y="385" style="fill:#FFDA44;" width="40" height="40"/>
	<path style="fill:#2488FF;" d="M435.804,134.614l-28.285,28.284c60.435,60.435,60.435,158.769,0,219.203l28.285,28.284
		c36.777-36.778,57.031-85.747,57.031-137.886S472.582,171.392,435.804,134.614z"/>
	<path style="fill:#2488FF;" d="M386.307,184.112l-28.285,28.284c33.142,33.142,33.142,87.066,0,120.208l28.285,28.284
		C435.044,312.151,435.044,232.849,386.307,184.112z"/>
</g>
</svg>